<svg xmlns="http://www.w3.org/2000/svg" width="16" height="12" viewBox="0 0 16 12" fill="none"><path d="M15.8603 1.17969L11.0078 6.00091L15.8603 10.8221C15.948 10.6388 16.0012 10.4361 16.0012 10.2197V1.78216C16.0012 1.56569 15.948 1.36303 15.8603 1.17969Z" fill="white"></path><path d="M14.5947 0.375H1.40716C1.19069 0.375 0.988031 0.428219 0.804688 0.515938L7.00666 6.68666C7.55503 7.23503 8.44678 7.23503 8.99516 6.68666L15.1971 0.515938C15.0138 0.428219 14.8111 0.375 14.5947 0.375Z" fill="white"></path><path d="M0.140938 1.17969C0.0532188 1.36303 0 1.56569 0 1.78216V10.2197C0 10.4361 0.0532188 10.6388 0.140938 10.8221L4.99341 6.00091L0.140938 1.17969Z" fill="white"></path><path d="M10.3447 6.66211L9.658 7.34877C8.74428 8.26248 7.2575 8.26248 6.34378 7.34877L5.65716 6.66211L0.804688 11.4833C0.988031 11.571 1.19069 11.6243 1.40716 11.6243H14.5947C14.8111 11.6243 15.0138 11.571 15.1971 11.4833L10.3447 6.66211Z" fill="white"></path></svg>